<?xml version="1.0" encoding="utf-8"?>
<svg id="logo-47" width="35px" height="26px" class="gradient" viewBox="0 0 35 26" fill="none" xmlns="http://www.w3.org/2000/svg">
  <path d="M 10.624 23.884 C 7.588 26.859 2.445 26.849 1.008 22.882 C 0.727 22.105 0.502 21.307 0.337 20.493 C -0.339 17.166 0.008 13.719 1.332 10.586 C 2.657 7.452 4.9 4.775 7.778 2.89 C 10.656 1.006 14.04 0 17.5 0 C 20.961 0 24.345 1.006 27.223 2.89 C 30.101 4.775 32.343 7.452 33.668 10.586 C 34.993 13.719 35.339 17.166 34.664 20.493 C 34.498 21.307 34.274 22.105 33.992 22.882 C 32.556 26.849 27.413 26.859 24.375 23.884 L 19.688 19.291 C 19.239 18.851 19.286 18.128 19.409 17.519 C 19.485 17.15 19.446 16.766 19.298 16.417 C 19.152 16.068 18.902 15.771 18.581 15.562 C 18.262 15.351 17.886 15.239 17.5 15.239 C 17.115 15.239 16.739 15.351 16.418 15.562 C 16.099 15.771 15.849 16.068 15.701 16.417 C 15.554 16.766 15.516 17.15 15.59 17.519 C 15.715 18.128 15.76 18.851 15.313 19.291 L 10.624 23.884 Z" fill="url(#logo470_linear_1495_1244)"/>
  <defs>
    <linearGradient id="logo470_linear_1495_1244" x1="32.8486" y1="8.60374" x2="2.30537" y2="8.60374" gradientUnits="userSpaceOnUse" gradientTransform="matrix(1.016991, 0, 0, 0.996488, -0.001193, 0.000311)">
      <stop class="ccompli2" stop-color="#64C2DB"/>
      <stop offset="0.5104" class="ccompli1" stop-color="#7476ED"/>
      <stop offset="1" class="ccustom" stop-color="#E56F8C"/>
    </linearGradient>
  </defs>
</svg>